<svg width="26" height="26" viewBox="0 0 26 26" fill="none" xmlns="http://www.w3.org/2000/svg">
<g clip-path="url(#clip0_3_219)">
<path d="M7.58325 19.9997C8.50419 19.9997 9.25024 20.7457 9.25024 21.6667C9.25024 22.5876 8.50419 23.3336 7.58325 23.3336C6.66557 23.3336 5.927 22.5909 5.927 21.6667C5.927 20.7424 6.66557 19.9997 7.58325 19.9997ZM18.4163 19.9997C19.3372 19.9997 20.0833 20.7457 20.0833 21.6667C20.0833 22.5876 19.3372 23.3336 18.4163 23.3336C17.4987 23.3335 16.761 22.5908 16.761 21.6667C16.761 20.7426 17.4987 19.9998 18.4163 19.9997ZM4.30396 2.66666L5.19751 4.54752L5.33325 4.83365H21.6663C21.9876 4.83365 22.2502 5.09318 22.2502 5.41666C22.2502 5.52045 22.2227 5.61316 22.1799 5.68814L22.177 5.69498L18.3059 12.7233C18.0164 13.2393 17.4689 13.5836 16.8459 13.5836H8.47876L8.33618 13.8424L7.36743 15.6081C7.31759 15.6975 7.28961 15.7914 7.27856 15.8844L7.27271 15.9792L7.27661 16.0583C7.31582 16.4483 7.64233 16.7494 8.04321 16.7497H20.0833V17.9167H7.58325C6.66231 17.9167 5.91626 17.1706 5.91626 16.2497C5.91631 15.9609 5.99023 15.6914 6.12036 15.446L7.58228 12.7917L7.7063 12.568L7.59595 12.3366L3.70142 4.1188L3.56665 3.83365H1.58325V2.66666H4.30396Z" fill="#69306D" stroke="#69306D"/>
</g>
<defs>
<clipPath id="clip0_3_219">
<rect width="26" height="26" fill="white"/>
</clipPath>
</defs>
</svg>
